<svg width="96" height="96" viewBox="0 0 96 96" fill="none" xmlns="http://www.w3.org/2000/svg">
  <path d="M16 36C20 23 32 15 46 15C61 15 74 24 79 38" stroke="#12CFE8" stroke-width="5" stroke-linecap="round" stroke-linejoin="round"/>
  <path d="M80 60C75 74 62 82 47 82C32 82 20 74 15 61" stroke="#12CFE8" stroke-width="5" stroke-linecap="round" stroke-linejoin="round"/>
  <path d="M48 63L40 56C35 51 31 47 31 41C31 35.8 35.2 31.8 40.5 31.8C44 31.8 46.8 33.6 48 36.2C49.2 33.6 52 31.8 55.5 31.8C60.8 31.8 65 35.8 65 41C65 47 61 51 56 56L48 63Z" stroke="#12CFE8" stroke-width="4.6" stroke-linecap="round" stroke-linejoin="round"/>
  <path d="M37 46H42.5L46.5 41L50.5 52L54.5 46H60" stroke="#12CFE8" stroke-width="3.2" stroke-linecap="round" stroke-linejoin="round"/>
</svg>
