<svg width="96" height="96" viewBox="0 0 96 96" fill="none" xmlns="http://www.w3.org/2000/svg">
  <defs>
    <linearGradient id="careStroke" x1="13" y1="16" x2="84" y2="82" gradientUnits="userSpaceOnUse">
      <stop offset="0" stop-color="#646A84" />
      <stop offset="0.52" stop-color="#7EA9B5" />
      <stop offset="1" stop-color="#9EE4DB" />
    </linearGradient>
  </defs>

  <path
    d="M17 35C20 22 32 13 46 13C62 13 75 23 80 38"
    stroke="url(#careStroke)"
    stroke-width="5.5"
    stroke-linecap="round"
    stroke-linejoin="round"
  />

  <path
    d="M79 62C74 76 61 84 46 84C31 84 18 75 14 60"
    stroke="url(#careStroke)"
    stroke-width="5.5"
    stroke-linecap="round"
    stroke-linejoin="round"
  />

  <path
    d="M48 63C39 57 33 51 33 43C33 37 38 32 44 32C48 32 51 34 53 37C55 34 58 32 62 32C68 32 73 37 73 43C73 51 67 57 58 63"
    stroke="url(#careStroke)"
    stroke-width="5"
    stroke-linecap="round"
    stroke-linejoin="round"
  />

  <path
    d="M39 48H45L48.5 43L52.5 53L56.5 48H62"
    stroke="url(#careStroke)"
    stroke-width="3.4"
    stroke-linecap="round"
    stroke-linejoin="round"
  />
</svg>
