<svg width="96" height="96" viewBox="0 0 96 96" fill="none" xmlns="http://www.w3.org/2000/svg">
  <defs>
    <linearGradient id="ringA" x1="12" y1="12" x2="84" y2="84" gradientUnits="userSpaceOnUse">
      <stop stop-color="#A7E6D9"/>
      <stop offset="1" stop-color="#79C7DD"/>
    </linearGradient>
    <linearGradient id="ringB" x1="84" y1="12" x2="12" y2="84" gradientUnits="userSpaceOnUse">
      <stop stop-color="#8FC7DF"/>
      <stop offset="1" stop-color="#A5DCD6"/>
    </linearGradient>
    <linearGradient id="pulse" x1="28" y1="44" x2="68" y2="56" gradientUnits="userSpaceOnUse">
      <stop stop-color="#58BFC2"/>
      <stop offset="1" stop-color="#6FA6DA"/>
    </linearGradient>
  </defs>

  <circle cx="48" cy="48" r="34" stroke="url(#ringA)" stroke-width="8" opacity="0.95"/>
  <circle cx="48" cy="48" r="24" stroke="url(#ringB)" stroke-width="6" opacity="0.9"/>

  <path
    d="M48 66C45.7 63.9 39.3 58.4 34.8 53.5C31.1 49.5 30 44.6 33 40.8C36.3 36.7 42.3 36.5 46.2 40.3L48 42.1L49.8 40.3C53.7 36.5 59.7 36.7 63 40.8C66 44.6 64.9 49.5 61.2 53.5C56.7 58.4 50.3 63.9 48 66Z"
    stroke="#6A7492"
    stroke-width="3.2"
    stroke-linejoin="round"
    fill="white"
  />

  <path
    d="M29 49.5H38L41.2 45L45.1 53.5L49.1 47.8H57.6L60.3 44.5L67 49.5"
    stroke="url(#pulse)"
    stroke-width="3.4"
    stroke-linecap="round"
    stroke-linejoin="round"
  />
</svg>
