<svg version="1.1" id="Layer_1" xmlns="http://www.w3.org/2000/svg" xmlns:xlink="http://www.w3.org/1999/xlink"
     width="96" height="96" viewBox="0 0 1024 960" enable-background="new 0 0 1024 960" xml:space="preserve">
  <defs>
    <linearGradient id="careGradient" x1="206" y1="790" x2="862" y2="168" gradientUnits="userSpaceOnUse">
      <stop offset="0" stop-color="#16A085" />
      <stop offset="0.52" stop-color="#2DBBD4" />
      <stop offset="1" stop-color="#5A8FC9" />
    </linearGradient>
  </defs>

  <path fill="url(#careGradient)" opacity="1.000000" stroke="none"
        d="M874.560059,639.473511 C865.771851,665.536438 854.212158,689.828918 839.497253,712.611267 C803.737671,767.975830 756.322693,810.210449 697.010315,839.003723 C659.304077,857.308350 619.597351,868.561218 577.739441,871.373169 C479.344910,877.983337 393.760712,847.496277 320.643066,781.604553 C288.449036,752.592102 262.979248,718.438599 243.750610,679.637573 C239.463516,670.986694 235.344650,662.210205 232.500443,652.956238 C228.555847,640.121887 235.479416,627.240784 247.717499,624.150146 C259.373901,621.206421 269.731659,626.373047 274.333099,637.932251 C286.205322,667.756287 302.276459,695.080872 322.899048,719.655579 C369.174896,774.799805 427.707794,809.765137 498.331360,823.260681 C553.411377,833.785950 607.544250,828.627014 659.481812,806.920959 C738.523987,773.887146 794.616150,717.586609 827.111694,638.256348 C837.639465,612.555359 844.405945,585.631836 845.288696,557.798950 C846.052429,533.719299 833.294617,511.662415 805.824341,504.401031 C775.563599,496.401978 755.446167,509.642944 739.781433,531.830444 C728.730652,547.482727 720.209961,564.748169 709.232727,580.494995 C682.445557,618.921326 650.704712,652.595459 613.887085,681.535217 C598.415710,693.696106 582.377319,705.027161 565.820435,715.657898 C555.434326,722.326538 545.645142,722.266724 535.124939,715.421265 C501.199280,693.345764 469.495361,668.573181 441.145966,639.632629 C434.153717,632.494629 427.546509,624.978577 420.795166,617.606262 C419.699310,616.409668 418.403259,615.275330 418.234985,613.595886 C419.012878,611.958984 420.493927,611.421875 421.779663,610.718384 C431.909882,605.175964 441.342529,598.632874 449.894775,590.880615 C452.532898,588.489258 454.248688,588.359192 456.790863,591.241394 C483.152588,621.128540 512.956238,647.139832 545.654785,669.897400 C549.186584,672.355530 551.806885,672.578430 555.426758,670.076782 C603.215088,637.051147 644.583618,597.663452 676.406555,548.731140 C686.124023,533.789246 694.188416,517.806763 704.844482,503.460571 C720.604065,482.243530 740.009827,466.209015 766.538574,460.412476 C810.040710,450.907257 859.079712,468.905487 879.815308,511.544495 C889.639038,531.745300 891.978943,553.233826 889.002441,575.382324 C886.092102,597.038452 881.803223,618.385254 874.560059,639.473511 z"/>

  <path fill="url(#careGradient)" opacity="1.000000" stroke="none"
        d="M316.201752,265.195679 C366.106018,218.413055 424.148560,188.228699 491.213806,176.107468 C521.306763,170.668533 551.669434,169.671814 582.216248,172.461151 C639.668335,177.707352 692.317139,196.413223 739.963684,228.685135 C798.511780,268.340912 841.516663,320.854736 867.921997,386.670532 C869.842896,391.458679 871.638184,396.303040 873.316223,401.181671 C877.640930,413.754791 871.710754,426.744171 859.778198,431.038879 C847.472412,435.467957 835.383362,429.465790 830.730042,416.447205 C814.543945,371.163300 790.016174,331.208374 755.025879,297.962708 C710.175354,255.348267 657.544373,227.783554 596.193726,218.684143 C520.796997,207.501434 450.710510,222.497086 387.264252,265.314789 C328.359985,305.067291 288.588715,359.310333 267.181000,427.015198 C261.194550,445.948242 257.340424,465.385956 256.434052,485.211304 C254.529053,526.880432 278.490845,557.654846 319.741669,565.137695 C355.649902,571.651367 386.965454,561.289307 412.706207,535.238220 C419.629517,528.231445 425.054779,519.966431 429.723419,511.252350 C435.792542,499.924316 442.300751,488.885468 451.080811,479.368225 C469.898865,458.970154 495.993988,459.155518 514.869812,479.534851 C524.170471,489.576385 530.524353,501.459015 537.181396,513.181824 C544.414856,525.919617 550.512024,539.316162 559.246765,551.178894 C560.899414,553.423279 562.151611,556.064636 565.104553,557.508911 C568.286560,555.923279 570.172180,552.915100 572.259277,550.195496 C578.048950,542.651245 583.051697,534.574280 587.963074,526.443481 C594.615234,515.430908 607.298889,511.668762 618.183899,517.498779 C628.678528,523.119629 633.267822,536.896240 627.142517,547.771790 C618.073669,563.873901 608.346741,579.557373 594.009277,591.880737 C576.872375,606.610291 555.439331,607.400940 537.973999,593.151733 C526.148560,583.503906 517.885010,571.019348 510.415283,557.931396 C502.655060,544.334412 496.169952,530.031433 487.704987,516.827637 C483.303528,509.962219 482.592102,509.938568 478.167328,517.011658 C469.956970,530.135925 463.219177,544.185791 453.569641,556.404541 C429.575836,586.786743 398.084656,603.886902 359.961334,609.434937 C327.917908,614.098083 297.478058,609.327454 269.243164,593.457703 C239.802872,576.910400 222.592789,551.056519 214.758804,518.552551 C209.492844,496.703552 211.578094,474.899841 215.148483,453.146362 C222.308075,409.524994 237.942886,369.084412 261.568115,331.759064 C276.963684,307.435699 295.108093,285.322632 316.201752,265.195679 z"/>

  <path fill="url(#careGradient)" opacity="1.000000" stroke="none"
        d="M391.334656,470.278748 C390.911652,485.038879 394.708862,498.421631 400.447327,511.307465 C401.870178,514.502380 401.662811,516.733093 399.358582,519.380737 C391.299622,528.640808 381.344940,535.073120 370.201050,539.935059 C366.806305,541.416138 365.047180,540.285522 363.484314,537.258362 C350.320190,511.759308 344.023499,485.084839 348.481384,456.258881 C354.755615,415.687561 375.484863,385.068176 412.298035,366.980774 C456.136841,345.441376 498.414917,350.638184 538.194885,378.420776 C541.058472,380.420685 543.897339,382.525879 546.419678,384.926666 C549.579102,387.933716 552.073975,387.795898 555.427063,384.948425 C573.978210,369.194580 595.036438,358.685944 619.386169,355.488190 C654.806641,350.836517 686.330078,359.706390 713.695251,382.875031 C731.106567,397.616302 742.829590,416.023560 749.317017,437.842743 C750.101868,440.482574 751.204712,443.061401 747.454346,444.387543 C734.756042,448.877808 723.413818,455.781708 712.754089,463.905121 C712.275024,464.270172 711.558899,464.324127 710.369507,464.714600 C708.393250,458.233337 707.207336,451.735840 704.869263,445.569550 C692.500305,412.947968 658.378479,393.254059 624.045593,399.369202 C606.726257,402.454010 592.761963,412.125244 579.641479,423.146240 C575.571838,426.564667 572.055481,430.636810 568.032471,434.116730 C556.137024,444.406372 543.710083,444.141693 532.522400,432.844086 C525.454285,425.706512 518.046692,419.073944 509.842682,413.323090 C496.596130,404.037567 482.197845,398.200134 465.702942,398.255676 C431.824066,398.369751 403.204559,420.345825 394.371613,453.164459 C392.898346,458.638489 391.862488,464.176270 391.334656,470.278748 z"/>
</svg>
