<svg width="64" height="64" viewBox="0 0 64 64" fill="none" xmlns="http://www.w3.org/2000/svg">
  <rect x="12" y="12" width="40" height="40" rx="8" fill="#1E2A52"/>
  <rect x="14" y="14" width="36" height="36" rx="7" stroke="#0EA5E9" stroke-opacity="0.35" stroke-width="1.5"/>
  <path d="M16 32H24L28 24L32 38L36 30H48" stroke="#34D399" stroke-width="3.5" stroke-linecap="round" stroke-linejoin="round"/>
  <rect x="28.5" y="3" width="3" height="7" rx="1" fill="#1E2A52"/>
  <rect x="36.5" y="3" width="3" height="7" rx="1" fill="#1E2A52"/>
  <rect x="20.5" y="3" width="3" height="7" rx="1" fill="#1E2A52"/>
  <rect x="28.5" y="54" width="3" height="7" rx="1" fill="#1E2A52"/>
  <rect x="36.5" y="54" width="3" height="7" rx="1" fill="#1E2A52"/>
  <rect x="20.5" y="54" width="3" height="7" rx="1" fill="#1E2A52"/>
  <rect x="3" y="20.5" width="7" height="3" rx="1" fill="#1E2A52"/>
  <rect x="3" y="28.5" width="7" height="3" rx="1" fill="#1E2A52"/>
  <rect x="3" y="36.5" width="7" height="3" rx="1" fill="#1E2A52"/>
  <rect x="54" y="20.5" width="7" height="3" rx="1" fill="#1E2A52"/>
  <rect x="54" y="28.5" width="7" height="3" rx="1" fill="#1E2A52"/>
  <rect x="54" y="36.5" width="7" height="3" rx="1" fill="#1E2A52"/>
</svg>
