<svg width="424" height="252" viewBox="0 0 424 252" fill="none" xmlns="http://www.w3.org/2000/svg">
<rect width="424" height="252" rx="18" fill="#EEF2FF"/>
<rect x="0" y="0" width="424" height="34" fill="#6366F1"/>
<rect x="18" y="10" width="168" height="14" rx="7" fill="white" fill-opacity="0.42"/>
<rect x="20" y="50" width="384" height="184" rx="14" fill="white"/>
<rect x="34" y="66" width="248" height="152" rx="10" fill="#0F172A"/>
<rect x="300" y="66" width="90" height="30" rx="8" fill="#EEF2FF"/>
<rect x="300" y="102" width="90" height="30" rx="8" fill="#EEF2FF"/>
<rect x="300" y="138" width="90" height="30" rx="8" fill="#EEF2FF"/>
<rect x="300" y="174" width="90" height="30" rx="8" fill="#EEF2FF"/>
<text x="311" y="85" fill="#4F46E5" font-family="Arial, sans-serif" font-size="12" font-weight="700">GET</text>
<text x="311" y="121" fill="#4F46E5" font-family="Arial, sans-serif" font-size="12" font-weight="700">POST</text>
<text x="311" y="157" fill="#4F46E5" font-family="Arial, sans-serif" font-size="12" font-weight="700">PATCH</text>
<text x="311" y="193" fill="#4F46E5" font-family="Arial, sans-serif" font-size="12" font-weight="700">WS</text>
<rect x="46" y="79" width="88" height="8" rx="4" fill="#3B82F6"/>
<rect x="46" y="94" width="140" height="6" rx="3" fill="#334155"/>
<rect x="46" y="108" width="180" height="6" rx="3" fill="#334155"/>
<rect x="46" y="124" width="56" height="8" rx="4" fill="#22C55E"/>
<rect x="46" y="139" width="158" height="6" rx="3" fill="#334155"/>
<rect x="46" y="155" width="70" height="8" rx="4" fill="#F59E0B"/>
<rect x="46" y="170" width="146" height="6" rx="3" fill="#334155"/>
<rect x="46" y="186" width="46" height="8" rx="4" fill="#EF4444"/>
<rect x="46" y="201" width="128" height="6" rx="3" fill="#334155"/>
</svg>
