<svg width="424" height="252" viewBox="0 0 424 252" fill="none" xmlns="http://www.w3.org/2000/svg">
<rect width="424" height="252" rx="18" fill="#EEF6FF"/>
<rect x="0" y="0" width="424" height="34" fill="#21C3C0"/>
<rect x="18" y="10" width="76" height="14" rx="7" fill="white" fill-opacity="0.42"/>
<rect x="108" y="10" width="54" height="14" rx="7" fill="white" fill-opacity="0.27"/>
<rect x="18" y="50" width="126" height="66" rx="12" fill="white"/>
<rect x="156" y="50" width="126" height="66" rx="12" fill="white"/>
<rect x="294" y="50" width="112" height="66" rx="12" fill="white"/>
<rect x="30" y="66" width="26" height="26" rx="8" fill="#E7ECFF"/>
<path d="M36 79H43L47 72L52 86L56 79H62" stroke="#5963E5" stroke-width="2.8" stroke-linecap="round" stroke-linejoin="round"/>
<rect x="168" y="66" width="26" height="26" rx="8" fill="#DFF7EF"/>
<path d="M175 83C175 83 179 76 185 76C191 76 194 83 194 83" stroke="#1A9E74" stroke-width="2.4" stroke-linecap="round"/>
<circle cx="185" cy="85" r="3" fill="#1A9E74"/>
<rect x="306" y="66" width="26" height="26" rx="8" fill="#FFF1DE"/>
<path d="M319 72V84" stroke="#CB7C1E" stroke-width="2.8" stroke-linecap="round"/>
<path d="M314 77C314 74.5 316.5 72 319 72C321.5 72 324 74.5 324 77" stroke="#CB7C1E" stroke-width="2.8" stroke-linecap="round"/>
<rect x="18" y="128" width="260" height="106" rx="12" fill="white"/>
<rect x="292" y="128" width="114" height="106" rx="12" fill="white"/>
<rect x="30" y="143" width="96" height="10" rx="5" fill="#DDE7F3"/>
<rect x="30" y="160" width="228" height="62" rx="10" fill="#F6FAFF"/>
<rect x="38" y="170" width="88" height="9" rx="4.5" fill="#C9D9EA"/>
<rect x="38" y="186" width="64" height="9" rx="4.5" fill="#D8E4F0"/>
<rect x="38" y="202" width="74" height="9" rx="4.5" fill="#D8E4F0"/>
<rect x="226" y="170" width="22" height="22" rx="6" fill="#EAF2FF"/>
<path d="M233 181H241" stroke="#5963E5" stroke-width="2.4" stroke-linecap="round"/>
<path d="M237 177V185" stroke="#5963E5" stroke-width="2.4" stroke-linecap="round"/>
<rect x="304" y="144" width="92" height="9" rx="4.5" fill="#DDE7F3"/>
<rect x="304" y="161" width="62" height="9" rx="4.5" fill="#DDE7F3"/>
<rect x="304" y="184" width="38" height="35" rx="8" fill="#E6F7EE"/>
<rect x="350" y="171" width="46" height="48" rx="8" fill="#EEF2FF"/>
<rect x="304" y="176" width="38" height="3" rx="1.5" fill="#34B87A"/>
<rect x="350" y="165" width="46" height="3" rx="1.5" fill="#737DF0"/>
</svg>
